# xmcd
#
# Track frame offsets:
#  150
#  26985
#  41535
#  64185
#  77845
#  84575
#  94480
#  108905
#  118805
#  129420
#  147000
#  163105
#  176470
#  196180
#  205265
#  222620
#  232725
#
# Disc length: 3446 seconds
#
# Revision: 0
# Processed by: cddbd v1.4PL0 Copyright (c) Steve Scherf et al.
# Submitted via: AltoMP3_Maker 3.0
#
DISCID=f00d7411
DTITLE=Bob Hupka - This Season of Christmas
DYEAR=1900
DGENRE=
TTITLE0=Overture
TTITLE1=O Come, O Come, Emmanuel
TTITLE2=Hark the Herald Angels Sing/Angels We Have Heard On High
TTITLE3=I Heard The Bells On Christmas Day
TTITLE4=Good King Wenceslas
TTITLE5=Thou Didst Leave Thy Throne
TTITLE6=O Little Town Of Bethlehem
TTITLE7=Joy To The World
TTITLE8=It Came Upon The Midnight Clear
TTITLE9=O Come, All Ye Faithful
TTITLE10=What Child Is This
TTITLE11=In The Bleak Midwinter
TTITLE12=The First Noel
TTITLE13=God Rest Ye Merry Gentlemen
TTITLE14=Silent Night
TTITLE15=All Through The Night
TTITLE16=O Holy Night
EXTD=
EXTT0=
EXTT1=
EXTT2=
EXTT3=
EXTT4=
EXTT5=
EXTT6=
EXTT7=
EXTT8=
EXTT9=
EXTT10=
EXTT11=
EXTT12=
EXTT13=
EXTT14=
EXTT15=
EXTT16=
PLAYORDER=
